<mxfile host="app.diagrams.net" modified="2023-04-20T05:21:31.267Z" agent="Mozilla/5.0 (Windows NT 10.0; Win64; x64) AppleWebKit/537.36 (KHTML, like Gecko) Chrome/112.0.0.0 Safari/537.36" etag="aKASkHcw-XHQSUarNDPx" version="21.2.1" type="device">
  <diagram name="Page-1" id="OabhbM1uevHjzAvhRcCS">
    <mxGraphModel dx="1434" dy="1896" grid="1" gridSize="10" guides="1" tooltips="1" connect="1" arrows="1" fold="1" page="1" pageScale="1" pageWidth="850" pageHeight="1100" math="0" shadow="0">
      <root>
        <mxCell id="0" />
        <mxCell id="1" parent="0" />
        <mxCell id="4MHFFXGwQ1QJC_KK5779-1" value="Login" style="rounded=1;whiteSpace=wrap;html=1;" vertex="1" parent="1">
          <mxGeometry x="460" y="100" width="120" height="60" as="geometry" />
        </mxCell>
        <mxCell id="4MHFFXGwQ1QJC_KK5779-2" value="Register" style="rounded=1;whiteSpace=wrap;html=1;" vertex="1" parent="1">
          <mxGeometry x="620" y="100" width="120" height="60" as="geometry" />
        </mxCell>
        <mxCell id="4MHFFXGwQ1QJC_KK5779-7" style="edgeStyle=orthogonalEdgeStyle;rounded=0;orthogonalLoop=1;jettySize=auto;html=1;exitX=0.5;exitY=0.5;exitDx=0;exitDy=0;exitPerimeter=0;entryX=0.442;entryY=0.033;entryDx=0;entryDy=0;entryPerimeter=0;" edge="1" parent="1" source="4MHFFXGwQ1QJC_KK5779-3" target="4MHFFXGwQ1QJC_KK5779-1">
          <mxGeometry relative="1" as="geometry">
            <Array as="points">
              <mxPoint x="520" y="-30" />
              <mxPoint x="520" y="102" />
            </Array>
          </mxGeometry>
        </mxCell>
        <mxCell id="4MHFFXGwQ1QJC_KK5779-10" style="edgeStyle=orthogonalEdgeStyle;rounded=0;orthogonalLoop=1;jettySize=auto;html=1;entryX=0.5;entryY=0;entryDx=0;entryDy=0;" edge="1" parent="1" source="4MHFFXGwQ1QJC_KK5779-3" target="4MHFFXGwQ1QJC_KK5779-6">
          <mxGeometry relative="1" as="geometry">
            <mxPoint x="130" y="-20" as="targetPoint" />
            <Array as="points">
              <mxPoint x="375" y="100" />
            </Array>
          </mxGeometry>
        </mxCell>
        <mxCell id="4MHFFXGwQ1QJC_KK5779-3" value="Coach&lt;br&gt;" style="shape=umlActor;verticalLabelPosition=bottom;verticalAlign=top;html=1;outlineConnect=0;" vertex="1" parent="1">
          <mxGeometry x="360" y="-60" width="30" height="60" as="geometry" />
        </mxCell>
        <mxCell id="4MHFFXGwQ1QJC_KK5779-9" style="edgeStyle=orthogonalEdgeStyle;rounded=0;orthogonalLoop=1;jettySize=auto;html=1;entryX=0.5;entryY=0;entryDx=0;entryDy=0;" edge="1" parent="1" source="4MHFFXGwQ1QJC_KK5779-4" target="4MHFFXGwQ1QJC_KK5779-2">
          <mxGeometry relative="1" as="geometry" />
        </mxCell>
        <mxCell id="4MHFFXGwQ1QJC_KK5779-11" style="edgeStyle=orthogonalEdgeStyle;rounded=0;orthogonalLoop=1;jettySize=auto;html=1;entryX=0.5;entryY=0;entryDx=0;entryDy=0;" edge="1" parent="1" source="4MHFFXGwQ1QJC_KK5779-4" target="4MHFFXGwQ1QJC_KK5779-1">
          <mxGeometry relative="1" as="geometry" />
        </mxCell>
        <mxCell id="4MHFFXGwQ1QJC_KK5779-4" value="Athelete&lt;br&gt;" style="shape=umlActor;verticalLabelPosition=bottom;verticalAlign=top;html=1;outlineConnect=0;" vertex="1" parent="1">
          <mxGeometry x="560" y="-70" width="30" height="60" as="geometry" />
        </mxCell>
        <mxCell id="4MHFFXGwQ1QJC_KK5779-6" value="Become Coach" style="rounded=1;whiteSpace=wrap;html=1;" vertex="1" parent="1">
          <mxGeometry x="315" y="100" width="120" height="60" as="geometry" />
        </mxCell>
      </root>
    </mxGraphModel>
  </diagram>
</mxfile>
